<svg width="843" height="833" viewBox="0 0 843 833" fill="none" xmlns="http://www.w3.org/2000/svg">
<g filter="url(#filter0_d_2469_2126)">
<path d="M362.393 121L339.5 151.507C338.746 153.071 332.956 157.614 339.5 151.507C273.284 150.696 457.206 152.317 339.5 151.507H362.393V444.84V478.867V794.493H191.56C180.247 794.493 160.223 793.343 148.96 791.081C108.232 779.348 87.8537 776.194 68.2438 708.923H50.1423H0V825H830V794.493H471.001V151.507V121H362.393Z" fill="white"/>
</g>
<path d="M364.706 173.608C374.088 235.15 364.098 143.182 440.5 227.739C405.468 125.255 494.279 252.673 480.596 162.916C466.912 73.1586 453.927 46.7399 419.552 0.703423C389.417 44.1559 351.405 107.321 364.706 173.608Z" fill="white"/>
<g filter="url(#filter1_d_2469_2126)">
<path d="M835 334.547H809.175L790.393 274.707C790.393 273.142 790.002 271.578 789.219 270.013C764.959 191.009 722.7 151.507 662.441 151.507H485.186V444.84H724.656V478.867H485.186V794.493H662.441C674.18 794.493 685.527 792.929 696.483 789.8C738.743 778.067 770.046 738.564 790.393 671.293L809.175 611.453H835L829.131 825H0V794.493H372.494V151.507V121H829.131L835 334.547Z" fill="white"/>
</g>
<path d="M354.763 155.914C365.03 153.44 369.414 152.146 380 152.146V122L374.887 122C372.076 122 369.471 122 363.803 122C323.03 127.893 313.707 141.218 280.938 165.334C259.805 178.37 246.23 192.418 216.905 209.045C180.617 229.621 158.129 228.16 117.632 202.264C102.687 193.285 87.2961 185.069 71.5181 177.649C67.0605 175.695 62.4868 174.018 57.8223 172.627L55.359 175.679C58.7 181.542 62.488 187.138 66.69 192.418C86.2148 212.83 110.189 228.464 136.748 238.105C142.068 240.173 147.39 241.945 153.105 244.012C151.725 247.951 150.641 251.003 149.459 253.859C105.217 360.298 62.0592 466.934 16.5365 572.684C12.9813 580.025 11.4707 588.188 12.1643 596.314C12.8579 604.44 15.7296 612.229 20.4775 618.863C26.6174 629.473 34.3618 639.072 43.4361 647.319C101.276 695.763 166.308 701.67 235.282 676.07C251.418 670.511 266.245 661.712 278.853 650.215C291.46 638.717 301.58 624.764 308.591 609.214C311.129 604.411 312.53 599.09 312.683 593.661C312.837 588.232 311.74 582.841 309.478 577.902C264.94 471.365 221.586 364.334 177.935 257.502C176.753 254.253 175.767 251.397 174.289 247.656C211.781 247.928 229.343 234.12 257.961 218.089C286.211 202.264 300.24 188.864 323.877 173.624C340.827 162.697 342.669 159.439 354.763 155.914Z" fill="white"/>
<path d="M296.373 583.908H28.0648L163.253 260.161M296.373 583.908C280.199 544.401 264.026 505.13 247.847 465.894M296.373 583.908L247.847 465.894M247.847 465.894C219.672 397.563 191.483 329.338 163.253 260.161M247.847 465.894L163.253 260.161M380 152.146C369.414 152.146 365.03 153.44 354.763 155.914C342.669 159.439 340.827 162.697 323.877 173.624C300.24 188.864 286.211 202.264 257.961 218.089C229.343 234.12 211.781 247.928 174.289 247.656C175.767 251.397 176.753 254.253 177.935 257.502C221.586 364.334 264.94 471.365 309.478 577.902C311.74 582.841 312.837 588.232 312.683 593.661C312.53 599.09 311.129 604.411 308.591 609.214C301.58 624.764 291.46 638.717 278.853 650.215C266.245 661.712 251.418 670.511 235.282 676.07C166.308 701.67 101.276 695.763 43.4361 647.319C34.3618 639.072 26.6174 629.473 20.4775 618.863C15.7296 612.229 12.8579 604.44 12.1643 596.314C11.4707 588.188 12.9813 580.025 16.5365 572.684C62.0592 466.934 105.217 360.298 149.459 253.859C150.641 251.003 151.725 247.951 153.105 244.012C147.39 241.945 142.068 240.173 136.748 238.105C110.189 228.464 86.2148 212.83 66.69 192.418C62.488 187.138 58.7 181.542 55.359 175.679L57.8223 172.627C62.4868 174.018 67.0605 175.695 71.5181 177.649C87.2961 185.069 102.687 193.285 117.632 202.264C158.129 228.16 180.617 229.621 216.905 209.045C246.23 192.418 259.805 178.37 280.938 165.334C313.707 141.218 323.03 127.893 363.803 122C369.471 122 372.076 122 374.887 122L380 122V152.146Z" stroke="white"/>
<path d="M35 587L164.5 263.5L291.5 587H35Z" fill="#1E2D43" stroke="white"/>
<line x1="164.5" y1="253" x2="164.5" y2="602" stroke="white" stroke-width="11"/>
<path d="M422.5 39L422.5 798" stroke="#1E2D43" stroke-width="7"/>
<defs>
<filter id="filter0_d_2469_2126" x="0" y="121" width="838" height="712" filterUnits="userSpaceOnUse" color-interpolation-filters="sRGB">
<feFlood flood-opacity="0" result="BackgroundImageFix"/>
<feColorMatrix in="SourceAlpha" type="matrix" values="0 0 0 0 0 0 0 0 0 0 0 0 0 0 0 0 0 0 127 0" result="hardAlpha"/>
<feOffset dx="4" dy="4"/>
<feGaussianBlur stdDeviation="2"/>
<feComposite in2="hardAlpha" operator="out"/>
<feColorMatrix type="matrix" values="0 0 0 0 0 0 0 0 0 0 0 0 0 0 0 0 0 0 0.25 0"/>
<feBlend mode="normal" in2="BackgroundImageFix" result="effect1_dropShadow_2469_2126"/>
<feBlend mode="normal" in="SourceGraphic" in2="effect1_dropShadow_2469_2126" result="shape"/>
</filter>
<filter id="filter1_d_2469_2126" x="0" y="121" width="843" height="712" filterUnits="userSpaceOnUse" color-interpolation-filters="sRGB">
<feFlood flood-opacity="0" result="BackgroundImageFix"/>
<feColorMatrix in="SourceAlpha" type="matrix" values="0 0 0 0 0 0 0 0 0 0 0 0 0 0 0 0 0 0 127 0" result="hardAlpha"/>
<feOffset dx="4" dy="4"/>
<feGaussianBlur stdDeviation="2"/>
<feComposite in2="hardAlpha" operator="out"/>
<feColorMatrix type="matrix" values="0 0 0 0 0 0 0 0 0 0 0 0 0 0 0 0 0 0 0.25 0"/>
<feBlend mode="normal" in2="BackgroundImageFix" result="effect1_dropShadow_2469_2126"/>
<feBlend mode="normal" in="SourceGraphic" in2="effect1_dropShadow_2469_2126" result="shape"/>
</filter>
</defs>
</svg>
